<mxfile host="app.diagrams.net" modified="2023-12-06T05:00:06.714Z" agent="Mozilla/5.0 (Windows NT 10.0; Win64; x64) AppleWebKit/537.36 (KHTML, like Gecko) Chrome/119.0.0.0 Safari/537.36" version="22.1.5" etag="FEfenjZZx-097wi09-PA" type="github">
  <diagram name="PÃ¡gina-1" id="hXVM1QvfM7a2TpKPJlc6">
    <mxGraphModel>
      <root>
        <mxCell id="0" />
        <mxCell id="1" parent="0" />
      </root>
    </mxGraphModel>
  </diagram>
</mxfile>
